<?xml version="1.0" encoding="UTF-8" standalone="no"?>
<!-- Created with Inkscape (http://www.inkscape.org/) -->

<svg
   version="1.1"
   id="svg13075"
   width="204"
   height="34.666668"
   viewBox="0 0 204 34.666668"
   sodipodi:docname="Footer Logo.svg"
   inkscape:version="1.2.2 (b0a8486541, 2022-12-01)"
   xmlns:inkscape="http://www.inkscape.org/namespaces/inkscape"
   xmlns:sodipodi="http://sodipodi.sourceforge.net/DTD/sodipodi-0.dtd"
   xmlns="http://www.w3.org/2000/svg"
   xmlns:svg="http://www.w3.org/2000/svg">
  <defs
     id="defs13079" />
  <sodipodi:namedview
     id="namedview13077"
     pagecolor="#ffffff"
     bordercolor="#000000"
     borderopacity="0.25"
     inkscape:showpageshadow="2"
     inkscape:pageopacity="0.0"
     inkscape:pagecheckerboard="0"
     inkscape:deskcolor="#d1d1d1"
     showgrid="false"
     inkscape:zoom="4.0269608"
     inkscape:cx="79.588557"
     inkscape:cy="-20.73524"
     inkscape:window-width="1920"
     inkscape:window-height="1051"
     inkscape:window-x="-9"
     inkscape:window-y="-9"
     inkscape:window-maximized="1"
     inkscape:current-layer="g13081" />
  <g
     inkscape:groupmode="layer"
     inkscape:label="Image"
     id="g13081">
    <rect
       fill="#990000"
       width="204.15689"
       height="34.943176"
       id="rect9057"
       x="-0.1525605"
       y="0.034492888"
       style="stroke-width:0.102066" />
  </g>
  <g
     inkscape:groupmode="layer"
     id="layer1"
     inkscape:label="Kongregate">
    <path
       id="path9059"
       style="fill:#ffffff;fill-opacity:1;stroke-width:0.0823252"
       d="m 85.619139,8.8860685 -2.601562,0.738281 c -0.764144,-0.253889 -1.409741,-0.482421 -2.914063,-0.482421 -4.56132,0 -7.833984,1.7524175 -7.833984,8.6874995 0,5.182627 1.815573,7.951171 7.332031,7.951171 2.841621,0 5.182412,-0.609421 7.355469,-1.371093 v -2.109375 l -1.457031,-0.482422 v -1.904297 l 0.07227,-0.103516 h 1.527344 V 17.11849 h -7.1875 v 2.335938 l 2.029297,0.509765 0.04883,0.101563 v 2.589843 c -0.52556,0.203187 -1.194579,0.330079 -1.982422,0.330079 -3.033035,0 -3.724609,-0.98955 -3.724609,-5.96875 0,-3.480221 0.978381,-5.132813 3.414062,-5.132813 1.146214,0 1.814866,0.202991 2.650391,0.583984 l 0.693359,2.388672 h 2.578125 z m 49.312501,0 -2.60352,0.738281 c -0.76414,-0.253889 -1.40761,-0.482421 -2.91211,-0.482421 -4.56164,0 -7.83398,1.7524175 -7.83398,8.6874995 0,5.182627 1.81534,7.951171 7.33203,7.951171 2.84163,0 5.18176,-0.609421 7.35547,-1.371093 v -2.109375 l -1.45703,-0.482422 v -1.904297 l 0.0723,-0.103516 h 1.52735 V 17.11849 h -7.1875 v 2.335938 l 2.0293,0.509765 0.0488,0.101563 v 2.589843 c -0.52532,0.203187 -1.19407,0.330079 -1.98242,0.330079 -3.03303,0 -3.72461,-0.98955 -3.72461,-5.96875 0,-3.480221 0.97799,-5.132813 3.41406,-5.132813 1.1463,0 1.81447,0.202991 2.65039,0.583984 l 0.69336,2.388672 h 2.57813 z m 12.94336,0.230469 -5.27735,0.837891 v 0.9902335 l -3.51171,11.634766 -0.11914,0.101562 h -1.40821 v 2.693359 h 6.08985 v -2.33789 l -1.45703,-0.558594 -0.0488,-0.101563 0.38281,-1.904296 h 4.77734 l 0.38086,2.107422 -0.0703,0.101562 h -1.17187 v 2.693359 h 7.09374 v -2.33789 l -1.625,-0.533203 -0.0723,-0.126954 z m -103.400392,0.02539 c -4.608899,0 -7.976562,1.6761795 -7.976562,8.6874995 0,5.10631 1.720558,7.951171 7.21289,7.951171 4.608735,0 7.97461,-1.6761 7.97461,-8.6875 0,-5.10631 -1.71844,-7.9511705 -7.210938,-7.9511705 z m -25.623047,0.355468 v 2.3359375 l 1.527344,0.634765 0.04883,0.103516 v 10.007813 l -0.07227,0.101562 h -1.410157 v 2.693359 h 6.949219 v -2.33789 l -1.550781,-0.558594 -0.04883,-0.101563 v -2.03125 l 2.101562,-1.982421 2.626953,4.216797 -0.07227,0.101562 h -1.050782 v 2.693359 h 7.259766 v -2.33789 l -1.646484,-0.533203 -0.144532,-0.126954 -4.273437,-5.917968 4.77539,-4.19336 0.238282,-0.07422 h 0.955078 V 9.4973935 h -7.283203 v 2.3359375 l 0.789062,0.253906 0.78711,0.255859 v 0.09961 l -5.0625,4.904297 v -5.056641 l 0.07227,-0.09961 h 1.503906 V 9.4973925 Z m 34.839844,0 v 2.3359375 l 1.529297,0.636718 0.04687,0.101563 v 10.007813 l -0.07227,0.101562 h -1.408203 v 2.693359 h 6.470703 v -2.33789 l -1.980469,-0.634766 -0.04883,-0.101562 v -8.941407 h 0.359375 l 5.753907,12.244141 h 4.632812 v -13.3125 l 0.07227,-0.09961 H 70.45507 V 9.4973945 h -6.494141 v 2.3359375 l 1.982422,0.636718 0.04687,0.101563 v 8.611328 H 65.632799 L 60.234362,9.4973945 Z m 35.582031,0 v 2.3359375 l 1.527344,0.636718 0.04883,0.101563 v 10.007813 l -0.07227,0.101562 h -1.408203 v 2.693359 h 6.66211 v -2.388671 l -1.265625,-0.507813 -0.04687,-0.101563 v -3.048828 l 1.623047,-0.253906 1.767578,3.556641 1.3125,2.74414 h 4.490233 v -2.33789 l -1.4336,-0.533203 -0.14257,-0.126954 -2.484376,-3.658203 c 1.958106,-0.736725 3.175776,-2.158854 3.175776,-4.724609 0,-3.480543 -1.62239,-4.4960935 -6.613276,-4.4960935 z m 15.832034,0 v 2.3359375 l 1.52929,0.636718 0.0469,0.101563 v 10.007813 l -0.0723,0.101562 h -1.4082 v 2.693359 h 13.96875 l 0.45508,-5.894531 h -2.91406 l -0.5,1.652344 c -0.42973,1.44793 -0.62272,1.548828 -4.96875,1.548828 h -0.69141 v -4.216797 h 1.00195 c 0.59702,0 0.76433,0.101415 0.95508,0.660156 l 0.26367,1.144532 h 1.83789 l 0.57422,-5.742188 h -2.19726 l -0.26368,1.091797 c -0.19073,0.660738 -0.3582,0.763672 -1.16992,0.763672 h -1.00195 v -4.19336 h 0.69141 c 4.48919,0 4.77603,0.128025 5.03906,1.423829 l 0.31055,1.802734 h 2.76953 V 9.4973955 Z m 48.56836,0 -0.45313,6.2480465 h 2.91211 l 0.76563,-2.615234 c 0.16744,-0.660575 0.31066,-0.992188 1.57617,-0.992188 h 0.6914 v 10.441407 l -0.0703,0.101562 h -2.00586 v 2.693359 h 8.14258 v -2.33789 l -2.15039,-0.558594 -0.0469,-0.101563 V 12.13802 h 0.8125 c 1.4327,0 1.52878,0.356907 1.69532,1.195313 l 0.42968,2.412109 h 2.76954 V 9.4973955 Z m 16.95508,0 v 2.3359375 l 1.52929,0.636718 0.0469,0.101563 v 10.007813 l -0.0723,0.101562 h -1.4082 v 2.693359 h 13.9707 l 0.45313,-5.894531 h -2.91407 l -0.5,1.652344 c -0.42965,1.44793 -0.62262,1.548828 -4.96875,1.548828 h -0.6914 v -4.216797 h 1.00195 c 0.59702,0 0.7644,0.101415 0.95508,0.660156 l 0.26367,1.144532 h 1.83789 l 0.57422,-5.742188 h -2.19727 l -0.26367,1.091797 c -0.19075,0.660738 -0.35819,0.763672 -1.16992,0.763672 h -1.00195 v -4.19336 h 0.6914 c 4.4893,0 4.7767,0.128025 5.03907,1.423829 l 0.31054,1.802734 h 2.77149 V 9.4973955 Z M 44.068358,11.884114 c 3.056826,0 3.605469,0.96569 3.605469,5.996094 0,3.607164 -0.836509,5.130859 -3.558594,5.130859 -3.008994,0 -3.605469,-0.938624 -3.605469,-5.99414 0,-3.607252 0.836093,-5.132813 3.558594,-5.132813 z m 100.677732,0.279297 h 0.35938 l 1.38476,5.919922 h -3.20117 z m -50.027341,0.02734 h 1.121093 c 2.41197,0 2.960938,0.506729 2.960938,2.259765 0,1.701747 -0.883447,2.261365 -2.650391,2.667969 l -1.43164,-0.203125 z" />
  </g>
</svg>
