<?xml version="1.0" encoding="UTF-8" standalone="no"?>
<!-- Created with Inkscape (http://www.inkscape.org/) -->

<svg
   version="1.1"
   id="svg12757"
   width="414.66666"
   height="40"
   viewBox="0 0 414.66666 40"
   sodipodi:docname="Main Logo.svg"
   inkscape:export-filename="Main Logo.svg"
   inkscape:export-xdpi="96"
   inkscape:export-ydpi="96"
   inkscape:version="1.2.2 (b0a8486541, 2022-12-01)"
   xmlns:inkscape="http://www.inkscape.org/namespaces/inkscape"
   xmlns:sodipodi="http://sodipodi.sourceforge.net/DTD/sodipodi-0.dtd"
   xmlns="http://www.w3.org/2000/svg"
   xmlns:svg="http://www.w3.org/2000/svg">
  <defs
     id="defs12761" />
  <sodipodi:namedview
     id="namedview12759"
     pagecolor="#ffffff"
     bordercolor="#000000"
     borderopacity="0.25"
     inkscape:showpageshadow="2"
     inkscape:pageopacity="0.0"
     inkscape:pagecheckerboard="0"
     inkscape:deskcolor="#d1d1d1"
     showgrid="false"
     inkscape:zoom="1.9811094"
     inkscape:cx="193.07364"
     inkscape:cy="-23.471698"
     inkscape:window-width="1920"
     inkscape:window-height="1051"
     inkscape:window-x="-32000"
     inkscape:window-y="-32000"
     inkscape:window-maximized="0"
     inkscape:current-layer="g12763" />
  <g
     inkscape:groupmode="layer"
     inkscape:label="Image"
     id="g12763">
    <rect
       fill="#990000"
       width="418.87115"
       height="43.175598"
       id="rect9057"
       x="-0.021560276"
       y="-0.029312443"
       style="stroke-width:0.162509" />
    <path
       fill="#ffffff"
       d="M 22.6407,39.953557 V 33.61769 h 2.631878 l 0.179378,-0.239004 -6.578778,-9.921863 -5.26294,4.662085 v 4.781582 l 0.119581,0.239193 3.887521,1.314899 v 5.498781 H 0.21330423 V 33.617491 H 3.7418659 L 3.9216546,33.378492 V 9.8308278 L 3.8018623,9.5916325 -0.02606872,8.0979689 V 2.5989955 H 17.557338 v 6.335673 H 13.789615 L 13.610238,9.1730893 V 21.066809 L 26.289043,9.5312041 V 9.2931708 L 24.315287,8.6952797 22.341737,8.0979689 V 2.5989955 h 18.240501 v 6.335673 H 38.19035 l -0.598126,0.1791543 -11.960687,9.8616252 10.70526,13.925042 0.358543,0.299231 4.1271,1.254861 v 5.498781 H 22.6407 Z"
       id="path9059"
       style="stroke-width:0.199831" />
    <path
       fill="#ffffff"
       d="m 61.851881,40.966447 c -13.761492,0 -18.069711,-6.697031 -18.069711,-18.715723 0,-16.5024959 8.43615,-20.4493664 19.98413,-20.4493664 13.761903,0 18.070322,6.6970277 18.070322,18.7157194 0,16.502688 -8.437174,20.44937 -19.984741,20.44937 z M 62.74937,8.2594685 c -6.82144,0 -8.914905,3.5878195 -8.914905,12.0781785 0,11.899137 1.495685,14.111395 9.034959,14.111395 6.820408,0 8.914905,-3.587628 8.914905,-12.077791 0,-11.840039 -1.375841,-14.1117825 -9.034959,-14.1117825 z"
       id="path9061"
       style="stroke-width:0.199923" />
    <path
       fill="#ffffff"
       d="m 128.63126,9.0886601 h -3.63322 l -0.18403,0.2374998 V 40.52332 H 112.86919 L 98.03065,11.826756 h -0.923114 v 20.957466 l 0.1229,0.237503 5.110104,1.488472 v 5.477545 H 85.65537 v -6.311397 h 3.632795 l 0.184666,-0.238079 V 9.9815507 L 89.349718,9.7432796 85.409147,8.2553852 V 2.7774578 H 102.2792 l 13.915,27.3867432 h 0.92397 V 9.9815507 L 116.99483,9.7432796 111.88431,8.2553852 V 2.7774578 h 16.74716 v 6.3112023 z"
       id="path9063"
       style="stroke-width:0.202365" />
    <path
       fill="#ffffff"
       d="m 167.45093,26.744544 h -3.76443 l -0.17641,0.2424 v 4.538893 l 3.58762,1.150411 c 0,0 0,4.598709 0,5.022514 -5.35233,1.81446 -11.11669,3.26748 -18.11569,3.26748 -13.58722,0 -18.05688,-6.596337 -18.05688,-18.942388 0,-16.5207558 8.05768,-20.697028 19.29235,-20.697028 3.70523,0 5.29373,0.5453925 7.17585,1.1502149 l 6.41097,-1.75523406 V 14.943894 h -6.35198 l -1.70651,-5.6891087 c -2.05792,-0.9076221 -3.70521,-1.3918308 -6.52838,-1.3918308 -5.99916,0 -8.41111,3.9338765 -8.41111,12.2244575 0,11.861446 1.70571,14.221888 9.17616,14.221888 1.94051,0 3.5872,-0.302797 4.88168,-0.786814 v -6.172337 l -0.11739,-0.242198 -4.99971,-1.211017 V 20.32981 h 17.70406 v 6.414734 z"
       id="path9065"
       style="stroke-width:0.199415" />
    <path
       fill="#ffffff"
       d="m 198.11023,39.953557 -3.18999,-6.490987 -4.29137,-8.414995 -3.94331,0.599915 v 7.213221 l 0.11596,0.240547 3.07383,1.201975 v 5.650324 H 173.69549 V 33.58178 h 3.42072 l 0.17473,-0.240357 V 9.6603006 L 177.17498,9.41975 173.46338,7.9176211 V 2.3872871 H 190.803 c 12.1202,0 16.06331,2.4039492 16.06331,10.6387789 0,6.070454 -2.95727,9.436609 -7.71247,11.17968 l 6.03112,8.654965 0.34785,0.300933 3.47948,1.261966 v 5.529947 z M 189.41112,8.7588678 h -2.72556 V 19.938157 l 3.47969,0.480907 c 4.29097,-0.962009 6.43675,-2.284553 6.43675,-6.310811 0,-4.1476043 -1.33349,-5.3493852 -7.19088,-5.3493852 z"
       id="path9067"
       style="stroke-width:0.197334" />
    <path
       fill="#ffffff"
       d="M 248.43562,39.953557 H 213.3659 v -6.425286 h 3.53647 l 0.1798,-0.242376 V 9.4058992 L 216.96126,9.1633285 213.12512,7.6485848 V 2.0718073 h 35.79062 V 16.194158 h -6.95389 l -0.77959,-4.303231 C 240.52194,8.7993732 239.80268,8.4966996 228.53254,8.4966996 h -1.73877 V 18.497306 h 2.51837 c 2.03785,0 2.45802,-0.242178 2.93689,-1.818595 l 0.66011,-2.606215 h 5.51438 l -1.43807,13.69829 h -4.61532 l -0.66033,-2.728185 c -0.47887,-1.333058 -0.89884,-1.575828 -2.39766,-1.575828 h -2.51837 v 10.061498 h 1.73877 c 10.91073,0 11.39125,-0.242376 12.47012,-3.696903 l 1.25825,-3.940064 h 7.31557 z"
       id="path9069"
       style="stroke-width:0.201481" />
    <path
       fill="#ffffff"
       d="m 291.99744,26.795861 h -3.82402 l -0.17918,0.241525 v 4.522515 l 3.64486,1.146261 c 0,0 0,4.582114 0,5.00439 -5.43781,1.807913 -11.29086,3.25569 -18.39954,3.25569 -13.80074,0 -18.34104,-6.572536 -18.34104,-18.874037 0,-16.4611431 8.18331,-20.6223458 19.59485,-20.6223458 3.76369,0 5.37606,0.5434246 7.28766,1.1460645 l 6.51308,-1.74890054 V 15.037792 h -6.45233 l -1.73285,-5.6685804 c -2.09119,-0.9043471 -3.76388,-1.3868086 -6.63149,-1.3868086 -6.09419,0 -8.54208,3.919682 -8.54208,12.180347 0,11.818646 1.73119,14.170571 9.3187,14.170571 1.97215,0 3.64485,-0.301705 4.959,-0.783975 v -6.150065 l -0.11903,-0.241324 -5.07765,-1.206647 v -5.547036 h 17.98128 v 6.391587 z"
       id="path9071"
       style="stroke-width:0.200609" />
    <path
       fill="#ffffff"
       d="m 318.07407,39.953557 v -6.71424 h 2.91841 l 0.17691,-0.253276 -0.95109,-5.256576 h -11.90844 l -0.95296,4.750233 0.11864,0.253476 3.63246,1.393423 v 5.827165 h -15.18211 v -6.71424 h 3.51239 l 0.29864,-0.253277 8.75131,-29.0075326 v -2.470145 l 13.15776,-2.09023104 9.88242,33.06115664 0.17857,0.317107 4.04953,1.329792 v 5.827165 z M 314.74046,7.0188285 h -0.89262 l -3.63226,14.7570425 h 7.97714 z"
       id="path9073"
       style="stroke-width:0.205247" />
    <path
       fill="#ffffff"
       d="m 365.82231,16.905254 -1.09246,-5.776855 c -0.42266,-2.0069423 -0.66586,-2.8584739 -4.30184,-2.8584739 h -2.06023 V 32.77732 l 0.12034,0.243374 5.45386,1.337899 v 5.594964 h -20.66464 v -6.446691 h 5.09012 l 0.18176,-0.243183 V 8.2699251 h -1.75813 c -3.21164,0 -3.57497,0.7906374 -3.99993,2.3719119 l -1.93928,6.263417 h -7.39352 l 1.1516,-14.9596386 H 372.8517 V 16.905254 Z"
       id="path9075"
       style="stroke-width:0.202912" />
    <path
       fill="#ffffff"
       d="M 413.41329,39.953557 H 377.6726 v -6.489498 h 3.60571 l 0.18323,-0.244799 V 9.1006176 L 381.33981,8.8556227 377.42956,7.3257412 V 1.6932315 h 36.47193 V 15.956715 h -7.0865 l -0.79423,-4.346236 C 405.34953,8.4880302 404.61491,8.1823317 393.12995,8.1823317 h -1.77189 V 18.282881 h 2.56653 c 2.07666,0 2.50484,-0.244599 2.99282,-1.83677 l 0.6727,-2.632261 h 5.62085 l -1.46713,13.835186 h -4.70342 l -0.6729,-2.75545 c -0.48779,-1.34638 -0.91576,-1.591576 -2.44314,-1.591576 h -2.56651 v 10.162049 h 1.77189 c 11.1187,0 11.60816,-0.244799 12.70735,-3.733848 l 1.28265,-3.97944 h 7.45276 z"
       id="path9077"
       style="stroke-width:0.204404" />
  </g>
</svg>
